<?xml version="1.0" encoding="UTF-8"?>
<svg version="1.1" xmlns="http://www.w3.org/2000/svg" width="1024" height="1024">
<path d="M0 0 C337.92 0 675.84 0 1024 0 C1024 337.92 1024 675.84 1024 1024 C686.08 1024 348.16 1024 0 1024 C0 686.08 0 348.16 0 0 Z " fill="#FEFEFE" transform="translate(0,0)"/>
<path d="M0 0 C3.63 0 7.26 0 11 0 C11.12375 0.969375 11.2475 1.93875 11.375 2.9375 C13.60594884 18.19865046 19.25958291 32.4971889 32 42 C43.54891374 49.25826452 55.71267733 53.22331156 69.34375 50.27734375 C83.4164477 46.2166471 93.88342972 39.52302557 101.46484375 26.8125 C106.23172238 18.07928724 107.91788165 9.88144918 109 0 C112.63 0 116.26 0 120 0 C120.15855469 0.94359375 120.31710937 1.8871875 120.48046875 2.859375 C123.35358895 18.66947287 128.42348537 31.90857914 141.8125 41.875 C151.52800849 48.11211656 160.46154609 50.7952855 172 51 C172 54.63 172 58.26 172 62 C156.30021416 63.10173936 141.88236506 56.6588988 130.1640625 46.5546875 C126.75299645 43.20985574 123.87170035 39.8289338 121 36 C120.67 47.88 120.34 59.76 120 72 C136.83 72 153.66 72 171 72 C171 75.3 171 78.6 171 82 C153.84 82 136.68 82 119 82 C119 91.9 119 101.8 119 112 C136.49 112 153.98 112 172 112 C172 115.3 172 118.6 172 122 C150.88 122 129.76 122 108 122 C107.01 118.7 106.02 115.4 105 112 C102.97700163 108.10740597 100.53275179 104.57864259 98 101 C97.38125 100.10087891 97.38125 100.10087891 96.75 99.18359375 C90.80782999 91.28133294 79.67411491 85.43147 70.140625 83.38671875 C55.46074545 81.57912164 43.25729126 83.48066293 31.046875 92.37109375 C30.37140625 92.90863281 29.6959375 93.44617188 29 94 C28.32453125 94.52722656 27.6490625 95.05445313 26.953125 95.59765625 C19.50330565 102.1667799 14.38895664 112.44417346 12 122 C-8.79 122 -29.58 122 -51 122 C-51 118.7 -51 115.4 -51 112 C-33.84 112 -16.68 112 1 112 C1 102.1 1 92.2 1 82 C-16.16 82 -33.32 82 -51 82 C-51 78.7 -51 75.4 -51 72 C-33.84 72 -16.68 72 1 72 C0.67 59.79 0.34 47.58 0 35 C-2.97 38.63 -5.94 42.26 -9 46 C-20.52736246 55.8220531 -35.52423083 63.07970483 -51 62 C-51 58.7 -51 55.4 -51 52 C-49.85144531 51.79246094 -48.70289062 51.58492188 -47.51953125 51.37109375 C-31.15660757 48.2123442 -18.17139924 42.4915588 -8.25 28.375 C-3.36645066 19.91357251 -0.51064489 9.70225285 0 0 Z " fill="#CB2E2B" transform="translate(151,431)"/>
<path d="M0 0 C7.425 -0.0825 14.85 -0.165 22.5 -0.25 C25.99303711 -0.30462402 25.99303711 -0.30462402 29.55664062 -0.36035156 C31.42316773 -0.37204501 33.28970512 -0.38223528 35.15625 -0.390625 C36.58469238 -0.4213208 36.58469238 -0.4213208 38.04199219 -0.45263672 C45.2763418 -0.45638509 50.4326175 1.13145176 56.09375 5.68359375 C60.28021443 10.90504522 60.73024692 15.39680379 60.38671875 22.0078125 C59.68494657 27.43768615 57.88055398 30.3935921 53.8125 33.875 C52.884375 34.57625 51.95625 35.2775 51 36 C51.721875 36.70125 52.44375 37.4025 53.1875 38.125 C58.72051838 43.68954555 62.09705505 47.71916324 62.25 55.8125 C62.17058257 61.81292804 60.61992125 65.95127607 56.875 70.6875 C49.84382069 76.3430138 43.12652045 77.58627203 34.27734375 77.390625 C32.96401062 77.38458252 32.96401062 77.38458252 31.62414551 77.37841797 C28.3950464 77.35769977 25.16624917 77.3018564 21.9375 77.25 C14.698125 77.1675 7.45875 77.085 0 77 C0 51.59 0 26.18 0 0 Z " fill="#CC2B28" transform="translate(597,474)"/>
<path d="M0 0 C2.94102802 1.46270597 5.63397577 3.02139197 8.125 5.1875 C8.104375 4.383125 8.08375 3.57875 8.0625 2.75 C8.125 0.1875 8.125 0.1875 9.125 -0.8125 C11.14464199 -0.88494053 13.16667124 -0.89627188 15.1875 -0.875 C16.84458984 -0.86146484 16.84458984 -0.86146484 18.53515625 -0.84765625 C19.38980469 -0.83605469 20.24445312 -0.82445312 21.125 -0.8125 C21.21815209 6.83769455 21.28899231 14.48782944 21.33224869 22.13846397 C21.35302189 25.69196139 21.38114773 29.24506754 21.42675781 32.79833984 C21.47899721 36.89424143 21.49802984 40.98973942 21.515625 45.0859375 C21.53627014 46.3467514 21.55691528 47.60756531 21.57818604 48.90658569 C21.5802188 56.98378656 20.97626814 64.73830147 15.4776001 71.09066772 C8.2877708 77.9742235 -1.35461901 79.50982217 -10.9609375 79.40625 C-17.96826558 78.88023073 -24.48663488 76.74688587 -29.875 72.1875 C-31 70.3125 -31 70.3125 -30.875 68.1875 C-28.9375 64.9375 -28.9375 64.9375 -26.875 62.1875 C-24.1849385 63.1866657 -21.81451868 64.22530082 -19.375 65.75 C-14.2797867 68.67974765 -8.5116482 68.92981208 -2.7890625 67.76171875 C0.96038775 66.62573289 3.44256668 65.38627653 5.625 62.0625 C7.66622388 57.88157215 7.4965297 53.73873883 7.125 49.1875 C6.279375 49.97125 5.43375 50.755 4.5625 51.5625 C-0.40925285 55.66303447 -6.14242621 56.7354457 -12.4765625 56.5625 C-19.47721142 55.467936 -25.12046191 51.65780335 -29.62109375 46.32421875 C-33.24207319 40.1538893 -34.40711556 34.34995149 -34.3125 27.25 C-34.30565186 26.45948242 -34.29880371 25.66896484 -34.29174805 24.85449219 C-34.12803042 18.91160347 -33.25865439 14.19039493 -29.875 9.1875 C-29.17375 8.115 -28.4725 7.0425 -27.75 5.9375 C-19.7464671 -1.71805321 -10.35629249 -4.37303349 0 0 Z " fill="#CC2F2C" transform="translate(835.875,494.8125)"/>
<path d="M0 0 C32.34 0 64.68 0 98 0 C98 3.3 98 6.6 98 10 C93.38 10.33 88.76 10.66 84 11 C85.19625 12.010625 86.3925 13.02125 87.625 14.0625 C95.07860104 20.62376852 101.80951977 28.4285593 105 38 C107.99474714 38.99824905 110.07345334 39.15324032 113.20581055 39.20532227 C114.26668381 39.22526749 115.32755707 39.24521271 116.420578 39.26576233 C117.56440445 39.28247482 118.7082309 39.29918732 119.88671875 39.31640625 C121.64493706 39.3475779 121.64493706 39.3475779 123.43867493 39.37937927 C127.18822286 39.44483818 130.93784163 39.50374296 134.6875 39.5625 C137.22722091 39.60568868 139.76693462 39.64930308 142.30664062 39.69335938 C148.53768755 39.8005159 154.76880584 39.90179388 161 40 C161 43.3 161 46.6 161 50 C139.88 50 118.76 50 97 50 C96.01 46.7 95.02 43.4 94 40 C91.97700163 36.10740597 89.53275179 32.57864259 87 29 C86.38125 28.10087891 86.38125 28.10087891 85.75 27.18359375 C79.80782999 19.28133294 68.67411491 13.43147 59.140625 11.38671875 C44.46074545 9.57912164 32.25729126 11.48066293 20.046875 20.37109375 C19.37140625 20.90863281 18.6959375 21.44617188 18 22 C17.32453125 22.52722656 16.6490625 23.05445313 15.953125 23.59765625 C8.50330565 30.1667799 3.38895664 40.44417346 1 50 C-19.79 50 -40.58 50 -62 50 C-62 46.7 -62 43.4 -62 40 C-43.52 39.67 -25.04 39.34 -6 39 C-5.67 37.68 -5.34 36.36 -5 35 C-3.72918451 32.59957074 -2.41876306 30.3100373 -1 28 C-0.36578125 26.92492187 -0.36578125 26.92492187 0.28125 25.828125 C4.04962042 19.75686155 8.51540941 15.57049216 14 11 C7.07 10.505 7.07 10.505 0 10 C0 6.7 0 3.4 0 0 Z " fill="#414852" transform="translate(162,503)"/>
<path d="M0 0 C3.96 0 7.92 0 12 0 C12 25.74 12 51.48 12 78 C8.04 78 4.08 78 0 78 C-0.33 76.35 -0.66 74.7 -1 73 C-1.54269531 73.34933594 -2.08539062 73.69867187 -2.64453125 74.05859375 C-3.35996094 74.51363281 -4.07539062 74.96867188 -4.8125 75.4375 C-5.52019531 75.88996094 -6.22789062 76.34242188 -6.95703125 76.80859375 C-12.73078883 80.17569903 -19.54201802 79.63004702 -26 79 C-32.48932371 76.66946888 -37.0717005 71.72383083 -40.19140625 65.69921875 C-44.16742891 56.34794594 -45.01722294 44.63959299 -41.171875 35.0625 C-37.29692356 28.24258546 -32.5028188 23.3538255 -25 21 C-24.01 20.67 -23.02 20.34 -22 20 C-14.62767242 18.94465658 -9.22247545 21.11830454 -3 25 C-2.34 25.66 -1.68 26.32 -1 27 C-0.67 18.09 -0.34 9.18 0 0 Z " fill="#CA2E2B" transform="translate(778,473)"/>
<path d="M0 0 C7.92 0 15.84 0 24 0 C24 7.59 24 15.18 24 23 C31.92 23 39.84 23 48 23 C48 31.25 48 39.5 48 48 C40.41 48 32.82 48 25 48 C25 55.92 25 63.84 25 72 C16.75 72 8.5 72 0 72 C0 64.08 0 56.16 0 48 C-7.92 48 -15.84 48 -24 48 C-24 39.75 -24 31.5 -24 23 C-16.08 23 -8.16 23 0 23 C0 15.41 0 7.82 0 0 Z " fill="#CE2F2D" transform="translate(199,531)"/>
<path d="M0 0 C6.27 0 12.54 0 19 0 C19.845625 2.28292969 20.69125 4.56585938 21.5625 6.91796875 C27.63673058 23.30628408 33.72827844 39.68594483 40 56 C42.34358607 52.48462089 43.65072876 48.82883821 45.08203125 44.88671875 C45.37808762 44.08071732 45.67414398 43.27471588 45.97917175 42.44429016 C46.92731039 39.86003036 47.86990676 37.2737869 48.8125 34.6875 C49.43519845 32.98880453 50.05824185 31.29023546 50.68164062 29.59179688 C54.14349173 20.15077062 54.14349173 20.15077062 57.52880859 10.68212891 C57.76017014 10.02718948 57.99153168 9.37225006 58.22990417 8.69746399 C58.84329971 6.95534657 59.4524519 5.2117367 60.0612793 3.46801758 C61 1 61 1 62 0 C63.41570123 -0.08651611 64.835595 -0.10704904 66.25390625 -0.09765625 C67.53491211 -0.09282227 67.53491211 -0.09282227 68.84179688 -0.08789062 C70.18854492 -0.07532227 70.18854492 -0.07532227 71.5625 -0.0625 C72.46419922 -0.05798828 73.36589844 -0.05347656 74.29492188 -0.04882812 C76.53001314 -0.03700225 78.76497437 -0.0205222 81 0 C79.42279254 4.8996061 77.6079767 9.67684595 75.7265625 14.46484375 C75.40634125 15.28348907 75.08612 16.1021344 74.75619507 16.94558716 C74.06954568 18.70063794 73.38223977 20.45543198 72.69433594 22.20999146 C70.88958106 26.81330103 69.08957863 31.41846873 67.2890625 36.0234375 C66.92742004 36.94800247 66.56577759 37.87256744 66.19317627 38.82514954 C62.77642385 47.5635826 59.38350369 56.31114757 56 65.0625 C55.74116028 65.73183563 55.48232056 66.40117126 55.21563721 67.09078979 C53.80961495 70.726881 52.4046371 74.36337327 51 78 C44.07 78 37.14 78 30 78 C10.92162116 29.93188741 10.92162116 29.93188741 4.875 14.25 C4.48070801 13.23115723 4.08641602 12.21231445 3.68017578 11.16259766 C3.32938965 10.24784668 2.97860352 9.3330957 2.6171875 8.390625 C2.32440918 7.62782227 2.03163086 6.86501953 1.72998047 6.07910156 C1.03203636 4.09124469 0.5109795 2.04391802 0 0 Z " fill="#404852" transform="translate(348,473)"/>
<path d="M0 0 C4.8713959 2.85929759 7.11790982 6.79363838 9 12 C9.50168532 15.41202131 9.46965878 18.74486583 9.390625 22.1875 C9.38496521 23.13061035 9.37930542 24.0737207 9.37347412 25.04541016 C9.35124585 28.03080978 9.3010756 31.01496874 9.25 34 C9.22991746 36.03513881 9.21166978 38.07029659 9.1953125 40.10546875 C9.15142557 45.07078391 9.08249314 50.03518227 9 55 C4.05 55 -0.9 55 -6 55 C-6 53.68 -6 52.36 -6 51 C-6.71349609 51.54140625 -6.71349609 51.54140625 -7.44140625 52.09375 C-14.59080335 56.83368178 -21.61419252 57.15698227 -30 56 C-35.27650241 54.05894431 -38.91434036 50.69020266 -42 46 C-43.8514093 40.44577211 -44.35386126 33.95132386 -41.87109375 28.5390625 C-38.31887779 23.54926567 -34.53018283 21.02189503 -28.625 19.3125 C-20.6185093 18.35934635 -15.25757286 19.47731844 -8 23 C-7.67 23.33 -7.34 23.66 -7 24 C-6.7064435 20.94701241 -6.56449795 18.04326734 -7 15 C-10.29825485 11.52815279 -13.25889339 9.84512281 -18 9.625 C-23.06755444 9.625 -26.47571735 11.50695839 -30.73828125 14.1015625 C-33 15 -33 15 -35.1796875 14.33203125 C-37.88936481 12.34919872 -38.80317649 10.08654485 -40 7 C-39 4 -39 4 -36.3828125 2.4296875 C-35.30773437 1.91664063 -34.23265625 1.40359375 -33.125 0.875 C-32.05507813 0.35679687 -30.98515625 -0.16140625 -29.8828125 -0.6953125 C-20.58447327 -4.90350397 -9.27230022 -4.0798121 0 0 Z " fill="#414953" transform="translate(544,496)"/>
<path d="M0 0 C7.32249408 4.30212391 11.48530034 10.72363336 14.00390625 18.69921875 C14.40297273 22.88941682 14.25390625 27.11506042 14.25390625 31.32421875 C0.06390625 31.32421875 -14.12609375 31.32421875 -28.74609375 31.32421875 C-24.98467697 40.42399965 -24.98467697 40.42399965 -17.74609375 45.32421875 C-11.38946275 45.95447961 -5.59681452 46.46493754 -0.18359375 42.69921875 C0.68458984 41.96832031 0.68458984 41.96832031 1.5703125 41.22265625 C2.40369141 40.77792969 2.40369141 40.77792969 3.25390625 40.32421875 C6.21274384 41.30866471 7.17999106 42.22481557 9.06640625 44.76171875 C10.25390625 47.32421875 10.25390625 47.32421875 9.25390625 50.32421875 C7.109375 51.67578125 7.109375 51.67578125 4.44140625 52.94921875 C3.13236328 53.58730469 3.13236328 53.58730469 1.796875 54.23828125 C-6.39639392 57.73709655 -17.07447298 57.760421 -25.37109375 54.57421875 C-33.24047953 50.82813098 -37.08237255 45.71662997 -40.8671875 38.0546875 C-43.1200467 31.05580492 -42.95073726 21.11737791 -40.18359375 14.32421875 C-31.96170693 -0.76366479 -16.17761249 -7.40067345 0 0 Z " fill="#C9302D" transform="translate(909.74609375,495.67578125)"/>
<path d="M0 0 C0.33 0 0.66 0 1 0 C1 12.54 1 25.08 1 38 C-31.67 38 -64.34 38 -98 38 C-98 25.79 -98 13.58 -98 1 C-93 6 -93 6 -90.8125 8.875 C-82.51041486 18.96722225 -67.98073004 25.53756464 -55.20703125 26.83203125 C-54.47871094 26.88746094 -53.75039062 26.94289063 -53 27 C-52.19949219 27.06574219 -51.39898437 27.13148438 -50.57421875 27.19921875 C-35.62507684 27.84147818 -21.68621767 22.19912979 -10.5625 12.4375 C-6.46655442 8.65195557 -3.0931201 4.63968015 0 0 Z " fill="#FBF7F7" transform="translate(260,465)"/>
<path d="M0 0 C0.66 0 1.32 0 2 0 C3.80785812 2.4865658 5.48226136 4.96914102 7.125 7.5625 C7.61274902 8.32449707 8.10049805 9.08649414 8.60302734 9.87158203 C23.46241257 33.38474614 23.46241257 33.38474614 22 45 C19.66190763 51.65779667 15.98524338 55.45318911 10 59 C3.82706385 61.05764538 -3.51189984 61.13095462 -9.4375 58.4375 C-18.66474104 49.66036828 -18.66474104 49.66036828 -19.23828125 43.3984375 C-19.41612139 36.15379179 -18.54771571 31.28054994 -15 25 C-14.40574219 23.9171875 -13.81148437 22.834375 -13.19921875 21.71875 C-4.27532487 5.66191672 -4.27532487 5.66191672 0 0 Z " fill="#CF2B27" transform="translate(210,412)"/>
<path d="M0 0 C4.95 0 9.9 0 15 0 C15 5.28 15 10.56 15 16 C18.96 16 22.92 16 27 16 C27 20.29 27 24.58 27 29 C23.04 29 19.08 29 15 29 C15.1181656 33.09362106 15.24240784 37.18700767 15.37231445 41.28027344 C15.41565846 42.6731259 15.45733396 44.06603131 15.49731445 45.45898438 C15.55502932 47.45976651 15.61921869 49.46035859 15.68359375 51.4609375 C15.72025146 52.66540527 15.75690918 53.86987305 15.79467773 55.11083984 C15.81052987 57.93996367 15.81052987 57.93996367 17 60 C20.34252724 60.07427838 22.8035914 60.06546953 26 59 C26.50559908 60.43554025 27.0042749 61.8735202 27.5 63.3125 C27.7784375 64.11300781 28.056875 64.91351562 28.34375 65.73828125 C29 68 29 68 29 71 C22.55687719 74.59616157 16.2765119 74.82410946 9 74 C4.21263547 71.93648081 2.54891741 69.74984079 0.6043396 64.97579956 C-0.41471852 61.64413872 -0.36834594 58.32348447 -0.29296875 54.87890625 C-0.28872391 54.13414536 -0.28447906 53.38938446 -0.28010559 52.62205505 C-0.26345724 50.26848527 -0.22583375 47.91580621 -0.1875 45.5625 C-0.17243515 43.95639267 -0.15874991 42.35027177 -0.14648438 40.74414062 C-0.11359952 36.82908953 -0.06191626 32.91469521 0 29 C-2.97 29 -5.94 29 -9 29 C-9 25.04 -9 21.08 -9 17 C-6.03 17 -3.06 17 0 17 C0 11.39 0 5.78 0 0 Z " fill="#404752" transform="translate(468,478)"/>
<path d="M0 0 C4.95 0 9.9 0 15 0 C15 25.74 15 51.48 15 78 C10.05 78 5.1 78 0 78 C0 52.26 0 26.52 0 0 Z " fill="#404751" transform="translate(567,473)"/>
<path d="M0 0 C4.86069772 1.66627826 8.20516693 3.61626766 11 8 C11.68363456 11.59998262 11.60115226 15.21675666 11.625 18.875 C11.67011719 19.85597656 11.71523438 20.83695313 11.76171875 21.84765625 C11.82853007 28.92011217 11.82853007 28.92011217 9.46777344 31.99707031 C4.30265836 36.48672665 0.55760669 37.36227264 -6.23828125 37.2734375 C-11.61606026 36.74098413 -14.05921454 34.13884555 -17.375 30.125 C-20.43894243 24.17734706 -20.2444227 15.95287211 -18.26953125 9.6796875 C-14.29893891 2.1922848 -8.22872506 -1.05200863 0 0 Z " fill="#FDF9F8" transform="translate(767,504)"/>
<path d="M0 0 C4.29 0 8.58 0 13 0 C13 2.31 13 4.62 13 7 C13.6290625 6.4946875 14.258125 5.989375 14.90625 5.46875 C20.55432822 1.18165448 23.87697358 -0.92335528 31 0 C31 3.63 31 7.26 31 11 C30.19175781 11.17015625 29.38351562 11.3403125 28.55078125 11.515625 C27.48214844 11.75796875 26.41351562 12.0003125 25.3125 12.25 C24.25675781 12.48203125 23.20101562 12.7140625 22.11328125 12.953125 C18.46846021 14.17873609 16.64854353 15.19073854 14 18 C13.24755021 20.9669364 13.27856509 23.87302121 13.29296875 26.921875 C13.27784744 27.78186096 13.26272614 28.64184692 13.24714661 29.52789307 C13.20423239 32.26886131 13.1954283 35.00872913 13.1875 37.75 C13.1643585 39.61070642 13.13899388 41.4713866 13.11132812 43.33203125 C13.04843926 47.88811826 13.01613306 52.4435172 13 57 C8.71 57 4.42 57 0 57 C0 38.19 0 19.38 0 0 Z " fill="#C93532" transform="translate(671,494)"/>
<path d="M0 0 C5.28 0 10.56 0 16 0 C16 18.81 16 37.62 16 57 C10.72 57 5.44 57 0 57 C0 38.19 0 19.38 0 0 Z " fill="#474E58" transform="translate(435,494)"/>
<path d="M0 0 C5.16063031 2.72637073 5.16063031 2.72637073 7.3125 5.75 C7.96786973 9.40073805 7.96151703 12.98647549 7.9375 16.6875 C7.96972656 17.67685547 8.00195312 18.66621094 8.03515625 19.68554688 C8.04467283 26.76112693 8.04467283 26.76112693 6.01171875 29.50683594 C4.4140625 30.85546875 4.4140625 30.85546875 1.3125 32.75 C0.19875 33.430625 0.19875 33.430625 -0.9375 34.125 C-6.35102458 35.3553465 -11.67956505 34.841269 -16.5625 32.1875 C-21.34795131 26.69830585 -23.40149922 21.54653416 -23.07421875 14.2109375 C-22.22913574 8.83313655 -20.03985674 5.03638811 -16.125 1.3125 C-10.80885474 -2.09528542 -5.88708793 -1.99562303 0 0 Z " fill="#FDF8F7" transform="translate(836.6875,505.25)"/>
<path d="M0 0 C4.20872148 -0.08105241 8.4158763 -0.14053316 12.625 -0.1875 C14.40970703 -0.22520508 14.40970703 -0.22520508 16.23046875 -0.26367188 C23.28352842 -0.32277573 28.41036649 -0.23067016 33.875 4.6875 C35.5363556 8.10250874 35.6650365 11.32402901 35 15 C32.83487611 18.55698925 30.85156543 20.49660396 27 22 C24.06738281 22.22705078 24.06738281 22.22705078 20.703125 22.1953125 C18.89521484 22.18564453 18.89521484 22.18564453 17.05078125 22.17578125 C15.16939453 22.15064453 15.16939453 22.15064453 13.25 22.125 C11.98027344 22.11597656 10.71054687 22.10695313 9.40234375 22.09765625 C6.26814871 22.07409087 3.13405059 22.03822013 0 22 C0 14.74 0 7.48 0 0 Z " fill="#FEF7F7" transform="translate(610,517)"/>
<path d="M0 0 C3.96 0 7.92 0 12 0 C12 18.48 12 36.96 12 56 C8.04 56 4.08 56 0 56 C0 37.52 0 19.04 0 0 Z " fill="#CF2924" transform="translate(711,495)"/>
<path d="M0 0 C4.04207139 -0.08108167 8.08250908 -0.14054629 12.125 -0.1875 C13.26710938 -0.21263672 14.40921875 -0.23777344 15.5859375 -0.26367188 C26.35107918 -0.35755392 26.35107918 -0.35755392 31 3 C33.67089167 7.00633751 33.70693873 10.28991428 33 15 C30.80168636 18.03215675 29.55036806 18.81654398 26 20 C24.0079697 20.08291953 22.01326287 20.10738177 20.01953125 20.09765625 C18.85615234 20.09443359 17.69277344 20.09121094 16.49414062 20.08789062 C15.27919922 20.07951172 14.06425781 20.07113281 12.8125 20.0625 C11.58595703 20.05798828 10.35941406 20.05347656 9.09570312 20.04882812 C6.06378135 20.03703076 3.0318846 20.01909514 0 20 C0 13.4 0 6.8 0 0 Z " fill="#FEF8F8" transform="translate(610,485)"/>
<path d="M0 0 C3.40007895 2.2667193 5.49970863 4.50493257 7.8125 7.875 C8.1425 9.855 8.4725 11.835 8.8125 13.875 C-1.4175 13.875 -11.6475 13.875 -22.1875 13.875 C-21.0036435 5.58800448 -21.0036435 5.58800448 -17.1875 1.875 C-11.48804156 -1.88146124 -6.32552366 -2.23253776 0 0 Z " fill="#FDF3F4" transform="translate(903.1875,504.125)"/>
<path d="M0 0 C0.66 0.33 1.32 0.66 2 1 C2.00364563 1.81130875 2.00729126 2.62261749 2.01104736 3.45851135 C2.04899538 11.1237084 2.10592459 18.78842307 2.18390274 26.45330906 C2.2233253 30.3934496 2.25553907 34.33336842 2.27099609 38.27368164 C2.28619756 42.08003071 2.32070362 45.88577 2.36830902 49.69184685 C2.38308713 51.14016339 2.39103896 52.58856701 2.39188385 54.03695869 C2.39426631 56.0742013 2.42144223 58.10977592 2.45410156 60.14672852 C2.46298401 61.30366714 2.47186646 62.46060577 2.48101807 63.65260315 C2.9257671 67.8376657 2.9257671 67.8376657 7 74 C7.33 65.42 7.66 56.84 8 48 C8.33 48 8.66 48 9 48 C9 57.57 9 67.14 9 77 C7.68 76.67 6.36 76.34 5 76 C4.0233463 74.14772574 3.06067325 72.28605733 2.1875 70.3828125 C-1.55830441 62.86656024 -6.90430466 56.68830976 -13 51 C-13.99 50.01 -14.98 49.02 -16 48 C-11.05 48 -6.1 48 -1 48 C-0.67 32.16 -0.34 16.32 0 0 Z " fill="#B72E2D" transform="translate(261,465)"/>
<path d="M0 0 C3.31217963 1.34940652 5.4792773 2.4792773 8 5 C8.4375 8.375 8.4375 8.375 8 12 C4.30578859 15.79405496 0.84106755 17.14357038 -4.375 17.375 C-7.99498826 17.32185172 -8.91508986 17.05718438 -12.0625 14.9375 C-14.492403 11.25345351 -14.70930433 9.33463758 -14 5 C-10.04963442 -0.0037964 -6.18281589 -0.66654892 0 0 Z " fill="#F8F8F9" transform="translate(530,525)"/>
<path d="M0 0 C2.92327345 2.55786427 3.83443034 4.13535846 4.5625 7.9375 C3.76884408 12.25851556 2.29420787 14.11756811 -1 17 C-3.87512628 17.86949383 -6.12487372 17.86949383 -9 17 C-12.29420787 14.11756811 -13.76884408 12.25851556 -14.5625 7.9375 C-13.87020639 4.32218892 -12.54408967 2.61891584 -10 0 C-6.72154211 -1.63922894 -3.40869581 -0.97680018 0 0 Z " fill="#434A53" transform="translate(448,470)"/>
<path d="M0 0 C3.96 0 7.92 0 12 0 C12 18.48 12 36.96 12 56 C8.04 56 4.08 56 0 56 C0 37.52 0 19.04 0 0 Z M2 2 C2 19.16 2 36.32 2 54 C4.64 54 7.28 54 10 54 C10 36.51 10 19.02 10 1 C5.26352314 0.73647686 5.26352314 0.73647686 2 2 Z " fill="#B63230" transform="translate(711,495)"/>
<path d="M0 0 C3.80484394 0.71340824 5.4511805 1.6388541 8 4.5625 C8.625 8 8.625 8 8 11.5625 C5.55804571 14.93814269 4.0769435 16.31570045 0 17.25 C-4.32475043 16.25891136 -5.64743715 14.22973032 -8 10.5625 C-8.625 8 -8.625 8 -8 5.5625 C-5.52745249 2.29001064 -4.07387885 0.76385228 0 0 Z " fill="#C63734" transform="translate(717,470.4375)"/>
<path d="M0 0 C3.96 0 7.92 0 12 0 C12.06799187 7.68482443 12.12294015 15.3695355 12.15543652 23.05458832 C12.17103947 26.62374621 12.19217818 30.19268622 12.22631836 33.76171875 C12.25910534 37.21118793 12.27689332 40.66044857 12.28463173 44.11006165 C12.29280731 46.05533736 12.31619545 48.00053012 12.33988953 49.94567871 C12.34116405 56.69894573 11.90201028 61.8679552 9 68 C7.90005936 64.70017809 8.15976793 64.18283162 9 61 C9.11365919 59.04539952 9.17604068 57.08756615 9.20532227 55.12988281 C9.22526749 53.94896057 9.24521271 52.76803833 9.26576233 51.55133057 C9.28247482 50.28142273 9.29918732 49.01151489 9.31640625 47.703125 C9.33718735 46.39921814 9.35796844 45.09531128 9.37937927 43.75189209 C9.43445236 40.29304192 9.4839264 36.8341336 9.53222656 33.37518311 C9.58254972 29.84251762 9.63817922 26.30993611 9.69335938 22.77734375 C9.80076021 15.85163537 9.90224497 8.92585106 10 2 C7.03 2 4.06 2 1 2 C1 3.98 1 5.96 1 8 C0.67 8 0.34 8 0 8 C0 5.36 0 2.72 0 0 Z " fill="#BD504F" transform="translate(845,494)"/>
<path d="M0 0 C3 2 3 2 4.5 5.5625 C4.995 6.696875 5.49 7.83125 6 9 C8.96892711 9.98964237 11.01149908 10.15273727 14.11401367 10.20532227 C15.67529243 10.2352401 15.67529243 10.2352401 17.26811218 10.26576233 C18.39006485 10.28247482 19.51201752 10.29918732 20.66796875 10.31640625 C21.81791824 10.33718735 22.96786774 10.35796844 24.15266418 10.37937927 C27.83088125 10.44483342 31.50917048 10.50374074 35.1875 10.5625 C37.67904396 10.60568913 40.17058059 10.64930355 42.66210938 10.69335938 C48.77466301 10.80051061 54.88728864 10.90228483 61 11 C61 13.97 61 16.94 61 20 C40.54 20 20.08 20 -1 20 C-1 19.67 -1 19.34 -1 19 C19.13 19 39.26 19 60 19 C60 16.69 60 14.38 60 12 C59.02067253 12.01332367 59.02067253 12.01332367 58.02156067 12.0269165 C51.22466794 12.11542916 44.42793901 12.17575086 37.63061523 12.21972656 C35.09408925 12.23983841 32.5576096 12.26713161 30.02124023 12.30175781 C26.37472089 12.35029242 22.72881472 12.37297363 19.08203125 12.390625 C17.38177544 12.42159271 17.38177544 12.42159271 15.64717102 12.45318604 C7.77018419 12.45542963 7.77018419 12.45542963 3.80273438 10.109375 C1.01692165 6.84970248 0.76493603 4.17237835 0 0 Z " fill="#353C45" transform="translate(261,532)"/>
<path d="M0 0 C5.28 0 10.56 0 16 0 C16 5.28 16 10.56 16 16 C10.66666667 10.66666667 5.33333333 5.33333333 0 0 Z " fill="#F4E8E9" transform="translate(245,513)"/>
<path d="M0 0 C5.28 0 10.56 0 16 0 C12.76294907 3.23705093 9.49152773 6.18193661 6 9.12109375 C3.50791366 11.37356628 3.50791366 11.37356628 0 16 C0 10.72 0 5.44 0 0 Z " fill="#FAF8F8" transform="translate(162,513)"/>
<path d="M0 0 C-2.9430108 2.48657163 -5.21710094 3.51280611 -9 4.1875 C-9.845625 4.34605469 -10.69125 4.50460937 -11.5625 4.66796875 C-14 5 -14 5 -18 5 C-18 6.98 -18 8.96 -18 11 C-15.47700364 10.57293819 -12.95712176 10.13370614 -10.4375 9.6875 C-9.73302734 9.56955078 -9.02855469 9.45160156 -8.30273438 9.33007812 C-4.6985115 8.68231457 -1.54637587 7.89138382 1.77734375 6.33203125 C5 5 5 5 7.4375 5.3125 C7.953125 5.539375 8.46875 5.76625 9 6 C0.06779715 10.54688362 -9.8910368 13.7052765 -20 13 C-20 9.7 -20 6.4 -20 3 C-17.04340215 2.30415424 -14.08512767 1.61801493 -11.125 0.9375 C-10.28324219 0.73833984 -9.44148438 0.53917969 -8.57421875 0.33398438 C-7.76855469 0.15029297 -6.96289062 -0.03339844 -6.1328125 -0.22265625 C-5.38918457 -0.39547119 -4.64555664 -0.56828613 -3.87939453 -0.74633789 C-2 -1 -2 -1 0 0 Z " fill="#BA3E3C" transform="translate(120,480)"/>
<path d="M0 0 C0.495 1.485 0.495 1.485 1 3 C-9.76352861 10.96501117 -22.92700232 12.08941647 -36 11 C-41.34100394 9.99856176 -46.19234587 8.54197805 -51 6 C-51 5.34 -51 4.68 -51 4 C-50.443125 4.19335938 -49.88625 4.38671875 -49.3125 4.5859375 C-33.9626786 9.82354548 -21.25244272 10.99046022 -6.1796875 3.62109375 C-4.08056936 2.46624976 -2.02625078 1.27753279 0 0 Z " fill="#B93C39" transform="translate(239,473)"/>
<path d="M0 0 C1.63001953 0.01353516 1.63001953 0.01353516 3.29296875 0.02734375 C4.12441406 0.03894531 4.95585938 0.05054688 5.8125 0.0625 C5.8125 0.3925 5.8125 0.7225 5.8125 1.0625 C1.1925 1.3925 -3.4275 1.7225 -8.1875 2.0625 C-8.1875 2.7225 -8.1875 3.3825 -8.1875 4.0625 C-8.90550781 4.29453125 -9.62351562 4.5265625 -10.36328125 4.765625 C-13.72236804 6.30811022 -15.76311212 8.20456353 -18.375 10.8125 C-19.23480469 11.65296875 -20.09460938 12.4934375 -20.98046875 13.359375 C-23.31060533 16.21327679 -24.26147049 18.52392913 -25.1875 22.0625 C-25.8475 21.7325 -26.5075 21.4025 -27.1875 21.0625 C-26.00246629 14.10042693 -22.36928894 9.75424235 -17.1875 5.0625 C-11.65527128 1.47588636 -6.54727777 -0.07040084 0 0 Z " fill="#BF4846" transform="translate(896.1875,492.9375)"/>
<path d="M0 0 C1.77119803 0.14133499 3.54195287 0.28823208 5.3125 0.4375 C6.29863281 0.51871094 7.28476563 0.59992188 8.30078125 0.68359375 C11 1 11 1 14 2 C16.71927311 2.09773286 19.40640143 2.14136478 22.125 2.125 C23.26763306 2.12209961 23.26763306 2.12209961 24.43334961 2.11914062 C29.68705297 2.07880079 34.79535949 1.75703862 40 1 C30.66081928 7.22612048 18.20514575 5.41219456 7.7265625 3.6328125 C5.00206797 3.00047996 2.56342625 2.10926445 0 1 C0 0.67 0 0.34 0 0 Z " fill="#BE4B48" transform="translate(190,488)"/>
<path d="M0 0 C0 3 0 3 -1.09887695 4.66918945 C-3.88137878 6.61697646 -6.04969122 6.33869197 -9.41796875 6.29296875 C-10.67158203 6.28330078 -11.92519531 6.27363281 -13.21679688 6.26367188 C-14.52712891 6.23853516 -15.83746094 6.21339844 -17.1875 6.1875 C-18.52277163 6.17244967 -19.85805937 6.15876187 -21.19335938 6.14648438 C-24.46264576 6.11107694 -27.73112093 6.0616889 -31 6 C-31 5.34 -31 4.68 -31 4 C-30.23856689 3.98541748 -29.47713379 3.97083496 -28.69262695 3.95581055 C-25.23208112 3.88119459 -21.77248555 3.78457741 -18.3125 3.6875 C-17.11431641 3.66494141 -15.91613281 3.64238281 -14.68164062 3.61914062 C-13.52470703 3.58369141 -12.36777344 3.54824219 -11.17578125 3.51171875 C-10.11270752 3.48553467 -9.04963379 3.45935059 -7.9543457 3.43237305 C-4.66479753 2.9509426 -2.70985019 1.88177956 0 0 Z " fill="#BB4846" transform="translate(641,501)"/>
<path d="M0 0 C4.50893974 2.25446987 6.86018372 4.40335763 9 9 C9.76614041 15.69095958 10.09711233 22.32707523 6 28 C5.34 28.33 4.68 28.66 4 29 C4.33 27.02 4.66 25.04 5 23 C5.66 23 6.32 23 7 23 C6.93981939 20.58073961 6.85277783 18.16751328 6.75 15.75 C6.73582031 15.06808594 6.72164062 14.38617188 6.70703125 13.68359375 C6.53591868 10.15867477 6.29920749 8.34488802 3.953125 5.640625 C3.30859375 5.09921875 2.6640625 4.5578125 2 4 C2 3.34 2 2.68 2 2 C1.34 2 0.68 2 0 2 C0 1.34 0 0.68 0 0 Z " fill="#BA3938" transform="translate(648,477)"/>
<path d="M0 0 C4.45827926 -0.0578304 8.9164628 -0.09353855 13.375 -0.125 C15.28152344 -0.15013672 15.28152344 -0.15013672 17.2265625 -0.17578125 C18.43828125 -0.18222656 19.65 -0.18867187 20.8984375 -0.1953125 C22.01911621 -0.20578613 23.13979492 -0.21625977 24.29443359 -0.22705078 C27 0 27 0 29 2 C25.69648101 3.101173 23.48612828 3.03109831 20.01953125 2.87890625 C18.85615234 2.83056641 17.69277344 2.78222656 16.49414062 2.73242188 C14.67172852 2.64831055 14.67172852 2.64831055 12.8125 2.5625 C11.58595703 2.51029297 10.35941406 2.45808594 9.09570312 2.40429688 C6.06354982 2.27451599 3.03171706 2.13954569 0 2 C0 1.34 0 0.68 0 0 Z " fill="#B63734" transform="translate(610,515)"/>
<path d="M0 0 C3 2 3 2 4.5 5.5625 C4.995 6.696875 5.49 7.83125 6 9 C9.42882941 10.14294314 12.24082838 10.20964472 15.85546875 10.31640625 C16.51710526 10.33718735 17.17874176 10.35796844 17.86042786 10.37937927 C19.96934852 10.44464727 22.07839135 10.50365344 24.1875 10.5625 C25.61915315 10.60570689 27.05079404 10.64932188 28.48242188 10.69335938 C31.98815154 10.80030506 35.49401786 10.90163641 39 11 C39 11.33 39 11.66 39 12 C34.53432237 12.09917794 30.06923493 12.17161225 25.6027832 12.21972656 C24.0847659 12.23979203 22.56682541 12.26705134 21.04907227 12.30175781 C18.86194878 12.35050393 16.67585048 12.37301805 14.48828125 12.390625 C13.17384033 12.41157227 11.85939941 12.43251953 10.50512695 12.45410156 C6.45140438 11.9289275 4.84622777 10.87282803 2 8 C0.84443115 5.32805177 0.53073184 2.89490096 0 0 Z " fill="#363940" transform="translate(261,532)"/>
<path d="M0 0 C8.58 0 17.16 0 26 0 C26.33 0.99 26.66 1.98 27 3 C18.09 2.67 9.18 2.34 0 2 C0 1.34 0 0.68 0 0 Z " fill="#B43633" transform="translate(610,483)"/>
<path d="M0 0 C3.63 0 7.26 0 11 0 C11.66 5.28 12.32 10.56 13 16 C9.93811273 11.91748364 9.62756497 11.43502071 9.8125 6.75 C9.83957031 5.85796875 9.86664063 4.9659375 9.89453125 4.046875 C9.92933594 3.37140625 9.96414062 2.6959375 10 2 C7.36 2 4.72 2 2 2 C1.67 3.98 1.34 5.96 1 8 C0.67 8 0.34 8 0 8 C0 5.36 0 2.72 0 0 Z " fill="#B74A48" transform="translate(151,431)"/>
<path d="M0 0 C-9.7354636 3.79518072 -19.92853351 6.35522875 -30 2 C-30 1.67 -30 1.34 -30 1 C-29.13834229 1.01571045 -29.13834229 1.01571045 -28.25927734 1.03173828 C-25.63123023 1.07357099 -23.00325346 1.099412 -20.375 1.125 C-19.47136719 1.14175781 -18.56773437 1.15851562 -17.63671875 1.17578125 C-11.85571717 1.21797834 -5.21464045 -2.00563094 0 0 Z " fill="#BE4A48" transform="translate(846,570)"/>
<path d="M0 0 C0.33 0 0.66 0 1 0 C1 9.57 1 19.14 1 29 C-3 28 -3 28 -4.1953125 26.29296875 C-4.50210937 25.59816406 -4.80890625 24.90335938 -5.125 24.1875 C-5.43695313 23.50042969 -5.74890625 22.81335938 -6.0703125 22.10546875 C-6.53050781 21.06326172 -6.53050781 21.06326172 -7 20 C-7.66019538 18.66345061 -8.32498341 17.32912559 -9 16 C-8.34 16 -7.68 16 -7 16 C-5.02 19.3 -3.04 22.6 -1 26 C-0.67 17.42 -0.34 8.84 0 0 Z " fill="#B13130" transform="translate(269,513)"/>
<path d="M0 0 C14.19 0 28.38 0 43 0 C43 0.33 43 0.66 43 1 C29.8 1.33 16.6 1.66 3 2 C2.34 3.32 1.68 4.64 1 6 C0.67 4.02 0.34 2.04 0 0 Z " fill="#FEEBEB" transform="translate(881,527)"/>
<path d="M0 0 C0 3.63 0 7.26 0 11 C-3.96 11.66 -7.92 12.32 -12 13 C-12 12.34 -12 11.68 -12 11 C-8.17679443 9.57741188 -5.08718695 8.75957724 -1 9 C-1 6.36 -1 3.72 -1 1 C-2.65 1 -4.3 1 -6 1 C-6 1.66 -6 2.32 -6 3 C-8.31 3.33 -10.62 3.66 -13 4 C-8.62340682 -0.37659318 -5.88808394 -0.39919213 0 0 Z " fill="#B63A37" transform="translate(702,494)"/>
<path d="M0 0 C1.33071893 3.99215679 0.21201539 5.37439261 -1.4375 9.1875 C-3.89369634 15.31434531 -5.55483063 20.11292344 -3 26.5 C-2.67 26.995 -2.34 27.49 -2 28 C-2.66 28.66 -3.32 29.32 -4 30 C-6.84323246 23.76763445 -7.23256288 16.93024767 -5.171875 10.359375 C-4.20240784 8.17445647 -3.15537618 6.09148389 -2 4 C-1.32963735 2.66852107 -0.66189201 1.33571 0 0 Z " fill="#B63F3E" transform="translate(197,433)"/>
<path d="M0 0 C2.86243848 4.29365772 2.71882979 7.96093058 2 13 C0.42522528 17.1533899 -1.22786917 20.98006858 -5.171875 23.25 C-5.77515625 23.4975 -6.3784375 23.745 -7 24 C-7 23.01 -7 22.02 -7 21 C-6.34 21 -5.68 21 -5 21 C-4.67 20.01 -4.34 19.02 -4 18 C-3.67 17.01 -3.34 16.02 -3 15 C-2.34 15 -1.68 15 -1 15 C0.09506492 11.71480525 0.09960608 9.26336585 0.0625 5.8125 C0.04896484 4.18248047 0.04896484 4.18248047 0.03515625 2.51953125 C0.02355469 1.68808594 0.01195312 0.85664063 0 0 Z " fill="#C34A49" transform="translate(230,444)"/>
<path d="M0 0 C0.33 0.66 0.66 1.32 1 2 C-0.08520508 3.49536133 -0.08520508 3.49536133 -2 5 C-5.00268555 5.2487793 -5.00268555 5.2487793 -8.63671875 5.07421875 C-9.93544922 5.01943359 -11.23417969 4.96464844 -12.57226562 4.90820312 C-13.94402834 4.83497036 -15.31577298 4.7613983 -16.6875 4.6875 C-18.07089921 4.62422838 -19.45436349 4.56236272 -20.83789062 4.50195312 C-24.2261558 4.3484777 -27.61308921 4.18058886 -31 4 C-31 3.67 -31 3.34 -31 3 C-29.80455566 2.970271 -29.80455566 2.970271 -28.58496094 2.93994141 C-24.97297528 2.84466752 -21.36156601 2.73499693 -17.75 2.625 C-15.86861328 2.57859375 -15.86861328 2.57859375 -13.94921875 2.53125 C-12.74394531 2.49257813 -11.53867187 2.45390625 -10.296875 2.4140625 C-9.18666992 2.3826416 -8.07646484 2.3512207 -6.93261719 2.31884766 C-4.11134958 2.01210644 -2.4029991 1.45713775 0 0 Z " fill="#B54341" transform="translate(641,536)"/>
<path d="M0 0 C0.804375 0.495 1.60875 0.99 2.4375 1.5 C1.7775 2.16 1.1175 2.82 0.4375 3.5 C-0.2225 3.17 -0.8825 2.84 -1.5625 2.5 C-7.14127391 0.6404087 -12.25737426 0.84743713 -17.5625 3.5 C-17.5625 2.51 -17.5625 1.52 -17.5625 0.5 C-11.77722519 -2.48594829 -5.91512144 -2.49057745 0 0 Z " fill="#BC3A38" transform="translate(904.5625,502.5)"/>
<path d="M0 0 C3.63 0 7.26 0 11 0 C11 2.64 11 5.28 11 8 C10.67 8 10.34 8 10 8 C10 6.02 10 4.04 10 2 C7.36 2 4.72 2 2 2 C2 3.98 2 5.96 2 8 C1.34 8 0.68 8 0 8 C0 5.36 0 2.72 0 0 Z " fill="#B94C4C" transform="translate(260,431)"/>
<path d="M0 0 C1.32 0.33 2.64 0.66 4 1 C4.10826289 3.4178712 4.18739789 5.83087556 4.25 8.25 C4.28351562 8.93191406 4.31703125 9.61382813 4.3515625 10.31640625 C4.4215705 13.92181813 4.29151719 15.64068812 1.984375 18.484375 C1.00210938 19.23460937 1.00210938 19.23460937 0 20 C-0.66 19.67 -1.32 19.34 -2 19 C-1.34 18.030625 -0.68 17.06125 0 16.0625 C2.51316476 11.74410421 2.3978512 7.87367725 2 3 C1.01 3.495 1.01 3.495 0 4 C0 2.68 0 1.36 0 0 Z " fill="#C34443" transform="translate(841,541)"/>
<path d="M0 0 C0.99 0.33 1.98 0.66 3 1 C3 1.66 3 2.32 3 3 C3.5878125 3.27070313 4.175625 3.54140625 4.78125 3.8203125 C9.8452731 6.51280366 14.05199006 10.89406966 18 15 C14.04925419 13.61936302 11.13829418 11.7971374 7.875 9.1875 C7.02679688 8.52105469 6.17859375 7.85460937 5.3046875 7.16796875 C2.94879746 4.9518349 1.51684682 2.84037003 0 0 Z " fill="#B33E3C" transform="translate(166,470)"/>
<path d="M0 0 C3 1 3 1 4.16796875 2.77734375 C5.06644259 5.17749218 5.29952349 7.00612684 5.3125 9.5625 C5.32925781 10.32691406 5.34601562 11.09132813 5.36328125 11.87890625 C4.91796488 14.47897923 3.99996498 15.34831388 2 17 C1.34 16.67 0.68 16.34 0 16 C0.66 15.01 1.32 14.02 2 13 C2.31983581 8.04254494 2.25980539 4.51961078 0 0 Z " fill="#BB3837" transform="translate(642,519)"/>
<path d="M0 0 C3.91939465 3.80411834 7.49102731 7.81576108 11 12 C8 12 8 12 6.2109375 10.390625 C5.60507813 9.68421875 4.99921875 8.9778125 4.375 8.25 C3.76398438 7.55390625 3.15296875 6.8578125 2.5234375 6.140625 C1.01742732 4.02448762 0.42274686 2.53648117 0 0 Z " fill="#BB403D" transform="translate(170,460)"/>
<path d="M0 0 C3.77610811 2.51740541 4.2420364 4.89808494 6 9 C6.99 9.66 7.98 10.32 9 11 C6.6875 10.8125 6.6875 10.8125 4 10 C1.5359752 6.83196811 0.56376782 3.94637474 0 0 Z " fill="#65393F" transform="translate(261,532)"/>
<path d="M0 0 C-1.55603771 3.81936528 -3.95604931 6.26044438 -7 9 C-7.66 9 -8.32 9 -9 9 C-7.45665977 5.21180126 -4.44676575 0 0 0 Z " fill="#4F535A" transform="translate(174,517)"/>
<path d="M0 0 C0 2 0 2 -1.6796875 3.69140625 C-2.40414062 4.30886719 -3.12859375 4.92632812 -3.875 5.5625 C-4.59429688 6.18253906 -5.31359375 6.80257813 -6.0546875 7.44140625 C-8 9 -8 9 -10 10 C-8.71596412 5.50587442 -5.23012555 0 0 0 Z " fill="#FCE2E2" transform="translate(759,505)"/>
<path d="M0 0 C1.9587043 0.14076315 3.91696093 0.2877676 5.875 0.4375 C7.51082031 0.55931641 7.51082031 0.55931641 9.1796875 0.68359375 C12 1 12 1 14 2 C14 2.66 14 3.32 14 4 C9.03083364 3.48594831 4.70973649 2.76615118 0 1 C0 0.67 0 0.34 0 0 Z " fill="#C04A49" transform="translate(299,488)"/>
<path d="M0 0 C0.66 0 1.32 0 2 0 C3.32 2.31 4.64 4.62 6 7 C5.38125 6.67 4.7625 6.34 4.125 6 C2.08981656 4.85806765 2.08981656 4.85806765 0 5 C-0.99 6.485 -0.99 6.485 -2 8 C-2.66 7.67 -3.32 7.34 -4 7 C-2.68 4.69 -1.36 2.38 0 0 Z " fill="#B94846" transform="translate(210,412)"/>
<path d="M0 0 C1 4 1 4 -0.1875 7.125 C-2 10 -2 10 -6 12 C-4.02 8.04 -2.04 4.08 0 0 Z " fill="#BD4340" transform="translate(256,451)"/>
<path d="M0 0 C2.475 0.99 2.475 0.99 5 2 C4.34 2.66 3.68 3.32 3 4 C1.68 4 0.36 4 -1 4 C-1.33 4.99 -1.66 5.98 -2 7 C-2.66 6.67 -3.32 6.34 -4 6 C-2.68 4.02 -1.36 2.04 0 0 Z " fill="#B8403E" transform="translate(809,557)"/>
<path d="M0 0 C0.33 0 0.66 0 1 0 C1.69821417 2.10063576 2.38324472 4.20565737 3.0625 6.3125 C3.44535156 7.48425781 3.82820312 8.65601563 4.22265625 9.86328125 C5 13 5 13 4 16 C1.18150494 10.45108785 -0.5326514 6.258654 0 0 Z " fill="#B63D3C" transform="translate(868,524)"/>
<path d="M0 0 C0.33 0.66 0.66 1.32 1 2 C-0.98 4.64 -2.96 7.28 -5 10 C-6.32 9.67 -7.64 9.34 -9 9 C-8.51789063 8.60167969 -8.03578125 8.20335937 -7.5390625 7.79296875 C-6.90742188 7.26316406 -6.27578125 6.73335938 -5.625 6.1875 C-4.99851563 5.66542969 -4.37203125 5.14335937 -3.7265625 4.60546875 C-1.7778952 2.91774261 -1.7778952 2.91774261 0 0 Z " fill="#BD3F3E" transform="translate(249,463)"/>
<path d="M0 0 C-3.14591933 2.80045623 -5.067064 3.35261589 -9.25 3.1875 C-10.14203125 3.16042969 -11.0340625 3.13335937 -11.953125 3.10546875 C-12.96632813 3.05326172 -12.96632813 3.05326172 -14 3 C-14 2.67 -14 2.34 -14 2 C-12.04396149 1.47061343 -10.08507711 0.95173199 -8.125 0.4375 C-7.03445312 0.14746094 -5.94390625 -0.14257812 -4.8203125 -0.44140625 C-2 -1 -2 -1 0 0 Z " fill="#BE4B48" transform="translate(120,480)"/>
<path d="M0 0 C1.02328619 3.19411474 0.96256253 5.4215884 0.25 8.6875 C0.09015625 9.47511719 -0.0696875 10.26273437 -0.234375 11.07421875 C-0.61335937 12.02748047 -0.61335937 12.02748047 -1 13 C-1.99 13.33 -2.98 13.66 -4 14 C-3.52188823 12.22888156 -3.0424722 10.45811517 -2.5625 8.6875 C-2.29566406 7.70136719 -2.02882812 6.71523438 -1.75390625 5.69921875 C-1.21920575 3.78482474 -0.62855462 1.88566385 0 0 Z " fill="#C15250" transform="translate(150,440)"/>
<path d="M0 0 C2 3 2 3 1.75 5.5 C1 8 1 8 -1 11 C-2.41687119 6.74938644 -1.19320039 4.28148375 0 0 Z " fill="#C24645" transform="translate(259,440)"/>
<path d="M0 0 C0 3.90838866 -1.50567876 5.11594107 -4 8 C-5.32 7.34 -6.64 6.68 -8 6 C-5.36 4.02 -2.72 2.04 0 0 Z " fill="#FCDFDF" transform="translate(654,504)"/>
<path d="M0 0 C3.53600465 1.91135386 5.78972846 3.62642766 8 7 C7.67 7.66 7.34 8.32 7 9 C5.29115995 7.37660195 3.62553283 5.70680947 2 4 C2 3.34 2 2.68 2 2 C1.34 2 0.68 2 0 2 C0 1.34 0 0.68 0 0 Z " fill="#B43F3D" transform="translate(648,477)"/>
<path d="M0 0 C0.99 0.33 1.98 0.66 3 1 C3 1.66 3 2.32 3 3 C4.32 3.66 5.64 4.32 7 5 C7 5.99 7 6.98 7 8 C3.75700849 5.61042731 1.49097658 3.7952131 0 0 Z " fill="#BB4241" transform="translate(166,470)"/>
<path d="M0 0 C6.4 0.49230769 6.4 0.49230769 9.4375 3.0625 C10.2109375 4.0215625 10.2109375 4.0215625 11 5 C6.46149338 5 3.6995556 2.4663704 0 0 Z " fill="#BE4C4A" transform="translate(833,504)"/>
<path d="M0 0 C2 1.375 2 1.375 4 3 C4 3.66 4 4.32 4 5 C3.34 5 2.68 5 2 5 C1.67 5.66 1.34 6.32 1 7 C0 6 0 6 -0.0625 2.9375 C-0.041875 1.968125 -0.02125 0.99875 0 0 Z " fill="#FBE4E5" transform="translate(271,466)"/>
<path d="M0 0 C0.66 0 1.32 0 2 0 C0.63055898 2.94956528 -0.87830409 5.52468811 -3 8 C-3.66 8 -4.32 8 -5 8 C-3.63055898 5.05043472 -2.12169591 2.47531189 0 0 Z " fill="#F8D9D8" transform="translate(149,467)"/>
</svg>
